<?xml version="1.0" encoding="UTF-8" standalone="no"?>
<svg
   xmlns:dc="http://purl.org/dc/elements/1.1/"
   xmlns:cc="http://creativecommons.org/ns#"
   xmlns:rdf="http://www.w3.org/1999/02/22-rdf-syntax-ns#"
   xmlns:svg="http://www.w3.org/2000/svg"
   xmlns="http://www.w3.org/2000/svg"
   xmlns:sodipodi="http://sodipodi.sourceforge.net/DTD/sodipodi-0.dtd"
   xmlns:inkscape="http://www.inkscape.org/namespaces/inkscape"
   width="16"
   height="16"
   version="1.1"
   id="svg6"
   sodipodi:docname="system-shutdown-symbolic.svg"
   inkscape:version="1.0.1 (3bc2e813f5, 2020-09-07)">
  <metadata
     id="metadata12">
    <rdf:RDF>
      <cc:Work
         rdf:about="">
        <dc:format>image/svg+xml</dc:format>
        <dc:type
           rdf:resource="http://purl.org/dc/dcmitype/StillImage" />
        <dc:title></dc:title>
      </cc:Work>
    </rdf:RDF>
  </metadata>
  <defs
     id="defs10" />
  <sodipodi:namedview
     pagecolor="#ffffff"
     bordercolor="#666666"
     borderopacity="1"
     objecttolerance="10"
     gridtolerance="10"
     guidetolerance="10"
     inkscape:pageopacity="0"
     inkscape:pageshadow="2"
     inkscape:window-width="1920"
     inkscape:window-height="1020"
     id="namedview8"
     showgrid="false"
     inkscape:zoom="49"
     inkscape:cx="8"
     inkscape:cy="8"
     inkscape:window-x="0"
     inkscape:window-y="0"
     inkscape:window-maximized="1"
     inkscape:current-layer="svg6"
     inkscape:document-rotation="0" />
  <path
     id="path4"
     style="fill:#444444;fill-opacity:1"
     d="m 11,3 c -0.552,0 -1,0.4477 -1,1 0,0.2839 0.102,0.5767 0.329,0.748 C 11.358,5.525 11.998,6.7108 12,8 12,10.209 10.209,12 8,12 5.7909,12 4,10.209 4,8 4.0024,6.7105 4.644,5.5253 5.6719,4.7471 5.8981,4.5759 5.9994,4.2833 6,4 6,3.4477 5.5523,3 5,3 4.7151,3 4.4724,3.1511 4.2539,3.334 2.8611,4.4998 2.0063,6.1837 2,8 c 0,3.314 2.6863,6 6,6 3.314,0 6,-2.686 6,-6 C 13.996,6.1678 13.137,4.4602 11.714,3.2998 11.504,3.1282 11.267,3 11,3 Z M 8,1 C 8.554,1 9,1.446 9,2 V 7 C 9,7.554 8.554,8 8,8 7.446,8 7,7.554 7,7 V 2 C 7,1.446 7.446,1 8,1 Z" />
</svg>
