<?xml version="1.0" encoding="UTF-8" standalone="no"?>
<svg
   xmlns:dc="http://purl.org/dc/elements/1.1/"
   xmlns:cc="http://creativecommons.org/ns#"
   xmlns:rdf="http://www.w3.org/1999/02/22-rdf-syntax-ns#"
   xmlns:svg="http://www.w3.org/2000/svg"
   xmlns="http://www.w3.org/2000/svg"
   xmlns:sodipodi="http://sodipodi.sourceforge.net/DTD/sodipodi-0.dtd"
   xmlns:inkscape="http://www.inkscape.org/namespaces/inkscape"
   width="16"
   height="16"
   version="1.1"
   id="svg4"
   sodipodi:docname="window-close-symbolic.svg"
   inkscape:version="1.0.2 (e86c870879, 2021-01-15)">
  <metadata
     id="metadata10">
    <rdf:RDF>
      <cc:Work
         rdf:about="">
        <dc:format>image/svg+xml</dc:format>
        <dc:type
           rdf:resource="http://purl.org/dc/dcmitype/StillImage" />
        <dc:title></dc:title>
      </cc:Work>
    </rdf:RDF>
  </metadata>
  <defs
     id="defs8" />
  <sodipodi:namedview
     pagecolor="#ffffff"
     bordercolor="#666666"
     borderopacity="1"
     objecttolerance="10"
     gridtolerance="10"
     guidetolerance="10"
     inkscape:pageopacity="0"
     inkscape:pageshadow="2"
     inkscape:window-width="1906"
     inkscape:window-height="1002"
     id="namedview6"
     showgrid="false"
     inkscape:zoom="39.5625"
     inkscape:cx="8"
     inkscape:cy="8"
     inkscape:window-x="0"
     inkscape:window-y="0"
     inkscape:window-maximized="1"
     inkscape:current-layer="svg4" />
  <path
     style="fill:#444444;stroke-width:1.24999;fill-opacity:1"
     d="M 4.2500156,3.0000209 A 1.2499947,1.2499947 0 0 0 3.0000209,4.2500156 1.2499947,1.2499947 0 0 0 3.3625193,5.1375119 L 6.2375072,7.9999998 3.3625193,10.862487 a 1.2499947,1.2499947 0 0 0 -0.3624984,0.887496 1.2499947,1.2499947 0 0 0 1.2499947,1.249995 1.2499947,1.2499947 0 0 0 0.8874963,-0.362499 L 7.9999998,9.7624927 10.849987,12.62498 a 1.2499947,1.2499947 0 0 0 0.899996,0.374998 1.2499947,1.2499947 0 0 0 1.249995,-1.249995 1.2499947,1.2499947 0 0 0 -0.362499,-0.887496 L 9.7624924,7.9999998 12.62498,5.1500118 A 1.2499947,1.2499947 0 0 0 12.999978,4.2500156 1.2499947,1.2499947 0 0 0 11.749983,3.0000209 1.2499947,1.2499947 0 0 0 10.862487,3.3625193 L 7.9999998,6.2375072 5.1500118,3.3750193 a 1.2499947,1.2499947 0 0 0 -0.0125,-0.0125 1.2499947,1.2499947 0 0 0 -0.8874962,-0.3624984 z"
     id="path2" />
</svg>
