<?xml version="1.0" encoding="UTF-8" standalone="no"?>
<svg
   xmlns:dc="http://purl.org/dc/elements/1.1/"
   xmlns:cc="http://creativecommons.org/ns#"
   xmlns:rdf="http://www.w3.org/1999/02/22-rdf-syntax-ns#"
   xmlns:svg="http://www.w3.org/2000/svg"
   xmlns="http://www.w3.org/2000/svg"
   xmlns:sodipodi="http://sodipodi.sourceforge.net/DTD/sodipodi-0.dtd"
   xmlns:inkscape="http://www.inkscape.org/namespaces/inkscape"
   width="16"
   height="16"
   viewBox="0 0 4.2333333 4.2333335"
   version="1.1"
   id="svg8"
   inkscape:version="1.0.1 (3bc2e813f5, 2020-09-07, custom)"
   sodipodi:docname="github.svg">
  <defs
     id="defs2" />
  <sodipodi:namedview
     id="base"
     pagecolor="#ffffff"
     bordercolor="#666666"
     borderopacity="1.0"
     inkscape:pageopacity="0.0"
     inkscape:pageshadow="2"
     inkscape:zoom="36.065789"
     inkscape:cx="8.0294604"
     inkscape:cy="9.3369724"
     inkscape:document-units="mm"
     inkscape:current-layer="layer1"
     showgrid="false"
     units="px"
     inkscape:window-width="1908"
     inkscape:window-height="1008"
     inkscape:window-x="0"
     inkscape:window-y="0"
     inkscape:window-maximized="1"
     inkscape:document-rotation="0"
     inkscape:snap-global="false" />
  <metadata
     id="metadata5">
    <rdf:RDF>
      <cc:Work
         rdf:about="">
        <dc:format>image/svg+xml</dc:format>
        <dc:type
           rdf:resource="http://purl.org/dc/dcmitype/StillImage" />
        <dc:title></dc:title>
      </cc:Work>
    </rdf:RDF>
  </metadata>
  <g
     inkscape:label="Layer 1"
     inkscape:groupmode="layer"
     id="layer1"
     transform="translate(0,-280.06665)">
    <path
       d="m 2.116667,280.39516 c -1.0226589,0 -1.85208367,0.82927 -1.85208367,1.85208 0,0.81831 0.53062192,1.51254 1.26667087,1.75748 0.09245,0.0172 0.1223919,-0.0403 0.1223919,-0.0891 v -0.3448 c -0.515188,0.11205 -0.6224545,-0.21854 -0.6224545,-0.21854 -0.0842696,-0.21407 -0.20573567,-0.27103 -0.20573567,-0.27103 -0.16807644,-0.11497 0.0128104,-0.1125 0.0128104,-0.1125 0.18598017,0.0129 0.28383187,0.19092 0.28383187,0.19092 0.1651441,0.28305 0.4332332,0.20125 0.5389563,0.15387 0.016514,-0.11962 0.064514,-0.20141 0.1176074,-0.24756 -0.411317,-0.0471 -0.84377856,-0.20589 -0.84377856,-0.91539 0,-0.20235 0.072385,-0.36748 0.19076466,-0.49714 -0.019138,-0.0468 -0.082572,-0.23521 0.018057,-0.49018 0,0 0.155575,-0.0497 0.5094773,0.18985 0.1477037,-0.041 0.306057,-0.0616 0.463484,-0.0624 0.1574272,5.8e-4 0.3159346,0.0213 0.463947,0.0624 0.3535936,-0.23955 0.50886,-0.18985 0.50886,-0.18985 0.1007842,0.25513 0.037351,0.44358 0.018212,0.49018 0.1188419,0.12966 0.1906101,0.29495 0.1906101,0.49714 0,0.71136 -0.4332332,0.868 -0.8456305,0.91385 0.066366,0.0574 0.127022,0.17008 0.127022,0.34294 v 0.50824 c 0,0.0493 0.029634,0.10712 0.1236266,0.0889 0.7354317,-0.24524 1.2654364,-0.93931 1.2654364,-1.75732 0,-1.02281 -0.8292705,-1.85208 -1.852083,-1.85208 z"
       id="path839"
       style="stroke-width:0.15434;fill:#eeeeee;fill-opacity:1" />
  </g>
</svg>
