<?xml version="1.0" encoding="UTF-8" standalone="no"?>
<svg
   xmlns:dc="http://purl.org/dc/elements/1.1/"
   xmlns:cc="http://creativecommons.org/ns#"
   xmlns:rdf="http://www.w3.org/1999/02/22-rdf-syntax-ns#"
   xmlns:svg="http://www.w3.org/2000/svg"
   xmlns="http://www.w3.org/2000/svg"
   xmlns:sodipodi="http://sodipodi.sourceforge.net/DTD/sodipodi-0.dtd"
   xmlns:inkscape="http://www.inkscape.org/namespaces/inkscape"
   width="16"
   height="16"
   viewBox="0 0 4.2333333 4.2333335"
   version="1.1"
   id="svg8"
   inkscape:version="1.0.1 (3bc2e813f5, 2020-09-07, custom)"
   sodipodi:docname="network-wired-disconnected-symbolic.svg">
  <defs
     id="defs2" />
  <sodipodi:namedview
     id="base"
     pagecolor="#ffffff"
     bordercolor="#666666"
     borderopacity="1.0"
     inkscape:pageopacity="0.0"
     inkscape:pageshadow="2"
     inkscape:zoom="36.065789"
     inkscape:cx="8.0294604"
     inkscape:cy="9.3369724"
     inkscape:document-units="mm"
     inkscape:current-layer="layer1"
     showgrid="false"
     units="px"
     inkscape:window-width="1908"
     inkscape:window-height="1008"
     inkscape:window-x="0"
     inkscape:window-y="0"
     inkscape:window-maximized="1"
     inkscape:document-rotation="0"
     inkscape:snap-global="false" />
  <metadata
     id="metadata5">
    <rdf:RDF>
      <cc:Work
         rdf:about="">
        <dc:format>image/svg+xml</dc:format>
        <dc:type
           rdf:resource="http://purl.org/dc/dcmitype/StillImage" />
        <dc:title></dc:title>
      </cc:Work>
    </rdf:RDF>
  </metadata>
  <g
     inkscape:label="Layer 1"
     inkscape:groupmode="layer"
     id="layer1"
     transform="translate(0,-280.06665)">
    <path
       id="path2101"
       style="font-style:normal;font-weight:normal;font-size:4.34112px;line-height:1.25;font-family:sans-serif;letter-spacing:0px;fill:#eeeeee;fill-opacity:0.50196081;stroke:none;stroke-width:0.296344"
       d="M 2.0039062 1 C 1.7949146 1 1.6177709 1.0724823 1.4707031 1.21875 C 1.3313731 1.3570807 1.2617188 1.5307096 1.2617188 1.7382812 L 1.2617188 9.8632812 C 1.2617188 10.071155 1.3313724 10.248301 1.4707031 10.394531 C 1.6177698 10.53324 1.7948926 10.603516 2.0039062 10.603516 L 7.2773438 10.603516 L 7.2773438 11.875 L 8.015625 12.613281 L 8.7636719 11.865234 L 8.7636719 10.603516 L 14.025391 10.603516 C 14.23438 10.603516 14.407549 10.53324 14.546875 10.394531 C 14.693944 10.248264 14.767578 10.070664 14.767578 9.8632812 L 14.767578 1.7382812 C 14.767578 1.5304072 14.69394 1.3570051 14.546875 1.21875 C 14.40755 1.0724823 14.234385 1 14.025391 1 L 2.0039062 1 z M 2.7480469 2.4765625 L 13.28125 2.4765625 L 13.28125 9.125 L 2.7480469 9.125 L 2.7480469 2.4765625 z M 1.2617188 13.017578 L 1.2617188 14.507812 L 4.3066406 14.507812 L 6.1191406 14.507812 L 6.921875 13.705078 L 6.234375 13.017578 L 1.2617188 13.017578 z M 9.7949219 13.017578 L 9.1074219 13.705078 L 9.9101562 14.507812 L 12.539062 14.507812 L 14.767578 14.507812 L 14.767578 13.017578 L 9.7949219 13.017578 z "
       transform="matrix(0.26458333,0,0,0.26458333,0,280.06665)" />
  </g>
</svg>
